<svg id="svg" xmlns="http://www.w3.org/2000/svg" xmlns:xlink="http://www.w3.org/1999/xlink" width="400" height="400" viewBox="0, 0, 400,400"><g id="svgg"><path id="path0" d="M279.955 0.857 C 254.121 5.711,236.536 24.513,244.254 39.028 L 245.650 41.654 182.111 97.585 C 147.164 128.347,117.655 154.316,116.535 155.295 L 114.499 157.074 109.517 155.537 L 104.535 154.000 99.267 143.772 C 95.146 135.770,93.252 132.738,90.560 129.838 L 87.121 126.132 83.310 129.016 C 81.214 130.603,78.969 132.069,78.321 132.274 C 76.649 132.805,76.851 133.441,79.143 134.857 C 81.771 136.482,84.582 140.003,86.828 144.486 C 88.993 148.808,88.913 148.966,85.182 147.727 C 80.204 146.074,76.571 148.333,76.571 153.083 C 76.571 156.879,76.692 156.930,111.891 168.246 C 148.379 179.976,146.382 179.143,145.580 182.302 C 144.820 185.297,148.393 186.183,105.196 172.286 C 84.192 165.529,66.311 160.000,65.460 160.000 C 63.017 160.000,60.571 162.821,60.571 165.638 C 60.571 169.890,60.910 170.058,85.041 177.785 L 106.940 184.796 111.041 192.804 L 115.143 200.811 128.764 209.691 L 142.385 218.571 148.565 231.911 L 154.745 245.251 149.098 248.078 C 145.993 249.632,143.274 250.920,143.057 250.938 C 142.839 250.957,139.505 245.611,135.648 239.058 C 126.222 223.044,129.427 224.970,101.927 218.798 C 86.258 215.281,78.849 213.377,78.197 212.700 C 77.347 211.816,52.607 168.528,49.737 162.901 C 45.827 155.237,47.688 145.625,54.359 139.026 C 57.691 135.731,57.703 135.661,55.024 135.158 C 53.859 134.940,51.258 134.014,49.245 133.101 C 44.937 131.148,45.318 131.000,42.112 135.868 C 37.721 142.536,36.895 145.416,36.911 154.000 C 36.929 163.788,36.757 163.375,51.755 189.829 L 64.163 211.714 63.811 222.783 L 63.459 233.851 48.873 256.054 C 40.850 268.266,34.286 278.355,34.286 278.475 C 34.286 278.694,42.301 279.550,45.349 279.657 C 46.882 279.711,47.841 278.417,60.769 258.857 L 74.555 238.000 74.754 231.286 C 74.891 226.644,75.159 224.580,75.619 224.600 C 77.641 224.687,92.814 228.445,92.958 228.895 C 93.052 229.188,92.039 232.691,90.707 236.677 L 88.286 243.926 72.063 261.820 C 56.766 278.694,53.825 282.122,54.351 282.465 C 59.140 285.594,73.113 290.506,74.182 289.437 C 74.706 288.913,72.004 284.086,70.541 282.935 L 69.279 281.942 77.268 273.114 C 81.662 268.258,88.280 260.922,91.975 256.810 L 98.693 249.334 101.623 240.174 L 104.554 231.014 111.754 232.646 C 115.714 233.544,119.163 234.407,119.418 234.565 C 120.058 234.961,132.766 256.572,132.500 256.814 C 132.382 256.921,128.385 259.338,123.618 262.185 C 109.032 270.896,87.089 285.566,87.713 286.189 C 87.871 286.347,90.249 285.408,93.000 284.104 C 99.404 281.067,105.671 279.469,112.857 279.044 L 118.571 278.705 124.857 274.844 C 164.359 250.580,213.008 231.898,224.714 236.497 C 229.929 238.546,218.577 256.285,200.906 273.700 C 195.584 278.944,195.582 278.850,201.000 278.891 C 203.436 278.910,206.660 279.128,208.165 279.375 L 210.902 279.826 215.191 275.267 C 232.588 256.774,240.351 241.704,236.827 233.267 C 231.621 220.804,210.565 222.096,173.238 237.168 L 165.046 240.476 162.899 235.809 C 161.718 233.243,158.867 227.029,156.564 222.000 C 151.362 210.645,151.525 210.815,136.380 200.970 C 125.910 194.164,120.398 189.714,122.435 189.714 C 122.534 189.714,126.462 191.030,131.164 192.639 C 141.381 196.133,146.042 196.571,150.110 194.420 C 152.447 193.184,155.429 189.965,155.429 188.677 C 155.429 188.323,157.293 187.466,159.571 186.774 C 161.850 186.082,196.862 175.571,237.375 163.417 L 311.035 141.319 313.403 144.231 C 328.710 163.061,354.080 157.277,364.545 132.571 C 372.869 112.918,373.760 78.795,366.526 56.666 C 353.828 17.820,316.782 -6.062,279.955 0.857 M307.181 12.573 C 345.806 22.384,366.754 63.474,358.288 112.821 C 352.708 145.343,330.523 154.932,317.781 130.328 C 313.491 122.043,313.491 122.044,313.442 100.000 C 313.398 80.319,313.396 80.278,311.880 75.429 C 304.784 52.725,289.133 39.078,267.889 37.070 C 254.692 35.823,252.835 34.904,254.213 30.303 C 258.429 16.230,285.674 7.111,307.181 12.573 M317.777 37.940 C 313.391 40.372,313.959 44.899,319.165 48.997 C 324.562 53.246,331.429 63.126,331.429 66.643 C 331.429 69.697,337.965 70.694,340.615 68.044 C 347.465 61.194,326.258 33.240,317.777 37.940 M260.905 47.866 C 261.327 48.152,259.793 55.583,256.084 71.228 L 250.644 94.171 193.944 128.798 C 162.760 147.843,136.898 163.558,136.474 163.721 C 135.565 164.070,128.044 161.636,127.993 160.977 C 127.974 160.728,156.832 135.087,192.122 103.996 C 260.282 43.946,257.942 45.856,260.905 47.866 M279.944 52.007 C 286.496 55.175,296.727 65.235,295.063 66.872 C 294.292 67.630,264.442 85.777,264.268 85.593 C 264.183 85.502,266.079 77.393,268.483 67.571 C 273.526 46.966,272.474 48.395,279.944 52.007 M57.728 72.916 C 38.787 78.006,32.589 104.867,47.010 119.364 C 61.147 133.575,84.511 123.991,87.440 102.779 C 90.070 83.733,74.755 68.340,57.728 72.916 M301.752 82.000 C 302.467 85.342,302.846 99.630,302.236 100.240 C 301.983 100.494,275.447 93.352,275.007 92.912 C 274.929 92.834,280.585 89.277,287.576 85.007 C 295.864 79.945,300.413 77.475,300.652 77.908 C 300.854 78.273,301.349 80.114,301.752 82.000 M68.286 84.512 C 77.742 88.890,79.200 104.441,70.827 111.608 C 62.026 119.141,50.598 112.424,50.591 99.714 C 50.585 88.304,59.651 80.514,68.286 84.512 M281.497 106.663 L 301.566 112.234 301.911 116.260 C 302.101 118.474,302.787 122.214,303.435 124.571 C 304.084 126.929,304.753 129.379,304.922 130.017 C 305.208 131.101,300.376 132.631,231.328 153.323 C 151.457 177.259,156.237 175.932,155.721 174.306 C 155.525 173.689,154.242 172.195,152.870 170.988 L 150.375 168.792 205.616 135.006 C 235.999 116.423,260.986 101.190,261.143 101.155 C 261.300 101.120,270.460 103.598,281.497 106.663 M30.052 290.467 C 25.848 294.672,28.740 299.630,35.754 300.242 C 42.029 300.789,45.568 301.867,52.857 305.452 C 67.851 312.825,83.007 312.825,98.000 305.452 C 112.174 298.481,121.206 298.408,135.143 305.153 C 151.289 312.968,166.172 312.943,181.851 305.074 C 194.845 298.553,204.351 298.566,218.286 305.123 C 234.609 312.804,248.124 312.891,264.000 305.416 C 277.473 299.073,288.429 298.746,299.568 304.356 C 316.683 312.976,333.899 313.068,348.798 304.620 C 352.822 302.339,358.255 300.784,363.951 300.286 C 369.954 299.760,371.429 298.633,371.429 294.570 C 371.429 287.019,359.522 287.028,343.429 294.590 C 329.139 301.304,320.067 301.305,305.714 294.594 C 289.826 287.166,275.603 287.234,259.840 294.814 C 246.497 301.232,237.064 301.234,223.390 294.825 C 207.224 287.247,191.336 287.092,177.721 294.380 C 164.509 301.453,154.165 301.568,140.195 294.798 C 123.996 286.950,109.385 286.995,93.545 294.943 C 86.407 298.524,82.265 299.586,75.429 299.586 C 68.593 299.586,64.450 298.524,57.313 294.943 C 46.189 289.361,33.278 287.241,30.052 290.467 M30.422 322.544 C 25.421 326.752,28.607 331.932,36.612 332.607 C 42.916 333.139,45.751 334.014,53.143 337.708 C 61.939 342.105,63.956 342.550,75.143 342.561 C 86.644 342.573,87.758 342.326,98.286 337.419 C 112.813 330.648,121.791 330.662,135.674 337.474 C 151.045 345.017,166.164 345.003,181.429 337.432 C 194.812 330.794,204.914 330.705,218.000 337.111 C 233.531 344.713,248.641 344.985,263.394 337.928 C 278.325 330.786,287.208 330.664,301.652 337.401 C 317.887 344.973,331.587 344.909,348.000 337.182 C 356.136 333.352,356.709 333.184,363.676 332.592 C 369.842 332.067,371.429 330.839,371.429 326.590 C 371.429 319.170,358.952 319.195,343.476 326.646 C 329.279 333.481,319.784 333.532,305.929 326.849 C 290.004 319.168,276.376 319.243,259.429 327.103 C 245.373 333.622,237.044 333.500,222.286 326.557 C 206.112 318.948,191.141 319.225,175.841 327.417 C 164.275 333.610,152.941 333.421,139.889 326.817 C 124.697 319.130,109.686 319.160,93.896 326.910 C 80.052 333.704,70.808 333.704,56.961 326.911 C 45.470 321.274,34.146 319.411,30.422 322.544 M30.286 352.571 C 27.170 355.688,29.477 361.143,33.911 361.143 C 36.529 361.143,38.286 359.920,38.286 358.098 C 38.286 356.707,36.196 356.902,35.823 358.328 C 35.371 360.057,32.585 359.614,31.481 357.637 C 30.727 356.289,30.742 355.976,31.619 354.637 C 32.711 352.970,35.249 352.583,35.793 354.000 C 36.289 355.293,38.286 355.080,38.286 353.734 C 38.286 351.318,32.395 350.462,30.286 352.571 M61.714 352.571 C 61.714 353.200,61.457 353.714,61.143 353.714 C 60.829 353.714,60.571 354.100,60.571 354.571 C 60.571 355.043,60.829 355.429,61.143 355.429 C 61.457 355.429,61.714 356.714,61.714 358.286 C 61.714 361.079,61.752 361.143,63.429 361.143 C 65.249 361.143,65.840 359.818,64.286 359.222 C 63.785 359.030,63.429 358.173,63.429 357.161 C 63.429 356.002,63.712 355.429,64.286 355.429 C 64.757 355.429,65.143 355.043,65.143 354.571 C 65.143 354.100,64.757 353.714,64.286 353.714 C 63.810 353.714,63.429 353.206,63.429 352.571 C 63.429 351.937,63.048 351.429,62.571 351.429 C 62.095 351.429,61.714 351.937,61.714 352.571 M80.000 352.742 C 80.000 353.908,79.774 354.030,77.992 353.822 C 75.294 353.507,74.286 354.476,74.286 357.384 C 74.286 360.505,75.032 361.143,78.686 361.143 L 81.714 361.143 81.714 356.286 C 81.714 352.349,81.552 351.429,80.857 351.429 C 80.344 351.429,80.000 351.956,80.000 352.742 M87.429 356.286 L 87.429 361.143 90.457 361.143 C 93.985 361.143,94.857 360.490,94.857 357.848 C 94.857 354.741,94.000 353.714,91.408 353.714 C 89.524 353.714,89.143 353.522,89.143 352.571 C 89.143 351.937,88.762 351.429,88.286 351.429 C 87.591 351.429,87.429 352.349,87.429 356.286 M121.714 352.286 C 121.714 352.757,122.100 353.143,122.571 353.143 C 123.043 353.143,123.429 352.757,123.429 352.286 C 123.429 351.814,123.043 351.429,122.571 351.429 C 122.100 351.429,121.714 351.814,121.714 352.286 M149.143 356.286 C 149.143 360.222,149.305 361.143,150.000 361.143 C 150.471 361.143,150.857 360.644,150.857 360.034 C 150.857 358.285,151.929 358.076,152.661 359.682 C 153.099 360.643,153.784 361.143,154.663 361.143 C 156.281 361.143,156.317 360.723,154.857 358.857 C 153.433 357.037,153.443 356.648,154.957 355.037 L 156.199 353.714 154.851 353.714 C 154.109 353.714,152.907 354.273,152.180 354.957 L 150.857 356.199 150.857 353.814 C 150.857 352.075,150.625 351.429,150.000 351.429 C 149.305 351.429,149.143 352.349,149.143 356.286 M39.429 357.429 C 39.429 360.349,39.612 361.143,40.286 361.143 C 40.861 361.143,41.143 360.567,41.143 359.391 C 41.143 357.219,42.055 355.429,43.163 355.429 C 43.751 355.429,44.000 356.074,44.000 357.600 C 44.000 361.107,48.129 362.698,50.483 360.098 C 53.573 356.683,47.940 351.146,44.686 354.400 C 44.152 354.933,44.000 354.933,44.000 354.400 C 44.000 353.981,43.111 353.714,41.714 353.714 L 39.429 353.714 39.429 357.429 M52.686 354.400 C 51.790 355.296,51.806 356.569,52.714 356.580 C 53.251 356.587,53.239 356.709,52.669 357.071 C 50.336 358.549,52.179 360.852,55.833 361.027 L 59.381 361.196 59.071 358.170 C 58.900 356.505,58.662 354.821,58.541 354.429 C 58.257 353.504,53.604 353.482,52.686 354.400 M66.971 354.400 C 66.083 355.288,66.083 359.569,66.971 360.457 C 69.025 362.511,73.714 360.561,73.714 357.654 C 73.714 354.389,69.173 352.198,66.971 354.400 M96.079 356.714 C 97.867 361.166,97.945 361.662,96.922 362.054 C 95.316 362.670,95.819 364.097,97.571 363.895 C 98.981 363.733,102.669 356.864,102.830 354.103 C 102.915 352.644,100.306 354.218,99.686 356.000 L 98.990 358.000 98.352 356.391 C 98.001 355.507,97.714 354.542,97.714 354.249 C 97.714 353.955,97.075 353.714,96.294 353.714 L 94.874 353.714 96.079 356.714 M108.000 358.857 C 108.000 363.048,108.159 364.000,108.857 364.000 C 109.415 364.000,109.714 363.441,109.714 362.400 C 109.714 360.908,109.848 360.817,111.722 361.035 C 114.289 361.335,115.429 360.369,115.429 357.892 C 115.429 354.465,114.655 353.714,111.123 353.714 L 108.000 353.714 108.000 358.857 M116.571 357.429 C 116.571 360.349,116.755 361.143,117.429 361.143 C 118.004 361.143,118.286 360.567,118.286 359.391 C 118.286 357.219,119.198 355.429,120.306 355.429 C 120.766 355.429,121.143 355.043,121.143 354.571 C 121.143 353.952,120.508 353.714,118.857 353.714 L 116.571 353.714 116.571 357.429 M121.714 357.429 C 121.714 360.349,121.897 361.143,122.571 361.143 C 123.239 361.143,123.435 360.353,123.456 357.571 L 123.484 354.000 124.978 357.654 C 126.353 361.016,126.397 361.363,125.522 362.002 C 124.036 363.089,124.368 364.099,126.143 363.895 C 127.552 363.733,131.241 356.864,131.401 354.103 C 131.486 352.644,128.877 354.218,128.257 356.000 L 127.561 358.000 126.924 356.391 C 126.573 355.507,126.286 354.542,126.286 354.249 C 126.286 353.955,125.257 353.714,124.000 353.714 L 121.714 353.714 121.714 357.429 M132.686 354.400 C 131.790 355.296,131.806 356.569,132.714 356.580 C 133.251 356.587,133.239 356.709,132.669 357.071 C 130.336 358.549,132.179 360.852,135.833 361.027 L 139.381 361.196 139.071 358.170 C 138.900 356.505,138.662 354.821,138.541 354.429 C 138.257 353.504,133.604 353.482,132.686 354.400 M140.571 357.473 C 140.571 360.354,140.756 361.143,141.429 361.143 C 142.037 361.143,142.288 360.520,142.294 359.000 C 142.305 356.382,143.011 355.146,144.228 355.613 C 144.881 355.863,145.143 356.706,145.143 358.553 C 145.143 360.510,145.359 361.143,146.027 361.143 C 146.749 361.143,146.880 360.487,146.742 357.571 L 146.571 354.000 143.571 353.902 L 140.571 353.803 140.571 357.473 M157.257 354.400 C 156.361 355.296,156.378 356.569,157.286 356.580 C 157.822 356.587,157.811 356.709,157.240 357.071 C 154.908 358.549,156.750 360.852,160.405 361.027 L 163.952 361.196 163.642 358.170 C 163.472 356.505,163.233 354.821,163.113 354.429 C 162.828 353.504,158.176 353.482,157.257 354.400 M48.857 356.000 C 49.057 356.324,48.577 356.571,47.748 356.571 C 46.944 356.571,46.286 356.314,46.286 356.000 C 46.286 355.686,46.785 355.429,47.395 355.429 C 48.005 355.429,48.663 355.686,48.857 356.000 M56.571 356.000 C 56.571 356.314,56.057 356.571,55.429 356.571 C 54.800 356.571,54.286 356.314,54.286 356.000 C 54.286 355.686,54.800 355.429,55.429 355.429 C 56.057 355.429,56.571 355.686,56.571 356.000 M71.143 356.000 C 71.343 356.324,70.863 356.571,70.034 356.571 C 69.229 356.571,68.571 356.314,68.571 356.000 C 68.571 355.686,69.071 355.429,69.681 355.429 C 70.291 355.429,70.949 355.686,71.143 356.000 M79.324 357.294 C 79.542 359.186,78.052 360.011,76.757 358.716 C 76.061 358.020,76.021 357.601,76.554 356.604 C 77.457 354.917,79.097 355.325,79.324 357.294 M92.286 357.436 C 92.286 358.729,92.024 359.143,91.205 359.143 C 89.620 359.143,88.730 357.472,89.695 356.309 C 90.897 354.860,92.286 355.464,92.286 357.436 M112.857 357.436 C 112.857 358.729,112.595 359.143,111.777 359.143 C 110.192 359.143,109.301 357.472,110.266 356.309 C 111.469 354.860,112.857 355.464,112.857 357.436 M136.571 356.000 C 136.571 356.314,136.057 356.571,135.429 356.571 C 134.800 356.571,134.286 356.314,134.286 356.000 C 134.286 355.686,134.800 355.429,135.429 355.429 C 136.057 355.429,136.571 355.686,136.571 356.000 M161.143 356.000 C 161.143 356.314,160.629 356.571,160.000 356.571 C 159.371 356.571,158.857 356.314,158.857 356.000 C 158.857 355.686,159.371 355.429,160.000 355.429 C 160.629 355.429,161.143 355.686,161.143 356.000 M56.778 358.571 C 56.424 359.494,54.286 359.775,54.286 358.899 C 54.286 358.443,55.189 358.024,56.696 357.781 C 56.922 357.744,56.959 358.100,56.778 358.571 M136.778 358.571 C 136.424 359.494,134.286 359.775,134.286 358.899 C 134.286 358.443,135.189 358.024,136.696 357.781 C 136.922 357.744,136.959 358.100,136.778 358.571 M161.350 358.571 C 160.995 359.494,158.857 359.775,158.857 358.899 C 158.857 358.443,159.761 358.024,161.268 357.781 C 161.494 357.744,161.530 358.100,161.350 358.571 M48.857 358.857 C 48.663 359.171,48.005 359.429,47.395 359.429 C 46.785 359.429,46.286 359.171,46.286 358.857 C 46.286 358.543,46.944 358.286,47.748 358.286 C 48.577 358.286,49.057 358.533,48.857 358.857 M71.143 358.857 C 70.949 359.171,70.291 359.429,69.681 359.429 C 69.071 359.429,68.571 359.171,68.571 358.857 C 68.571 358.543,69.229 358.286,70.034 358.286 C 70.863 358.286,71.343 358.533,71.143 358.857 M30.286 367.429 C 30.286 368.057,30.029 368.571,29.714 368.571 C 29.400 368.571,29.143 368.957,29.143 369.429 C 29.143 369.900,29.400 370.286,29.714 370.286 C 30.029 370.286,30.286 371.571,30.286 373.143 C 30.286 375.302,30.495 376.000,31.143 376.000 C 31.790 376.000,32.000 375.302,32.000 373.143 C 32.000 371.571,32.257 370.286,32.571 370.286 C 33.394 370.286,33.277 368.721,32.429 368.378 C 32.002 368.206,32.117 368.072,32.714 368.045 C 34.536 367.963,33.855 366.286,32.000 366.286 C 30.667 366.286,30.286 366.540,30.286 367.429 M64.000 371.143 C 64.000 376.938,65.512 378.478,65.827 373.005 L 66.000 370.010 67.917 373.005 C 70.928 377.711,72.000 377.222,72.000 371.143 C 72.000 365.348,70.488 363.807,70.173 369.281 L 70.000 372.276 68.083 369.281 C 65.072 364.575,64.000 365.063,64.000 371.143 M102.857 371.143 C 102.857 375.079,103.020 376.000,103.714 376.000 C 104.286 376.000,104.571 375.429,104.571 374.286 C 104.571 372.730,104.744 372.571,106.444 372.571 C 109.005 372.571,110.857 371.167,110.857 369.225 C 110.857 366.911,109.860 366.286,106.171 366.286 L 102.857 366.286 102.857 371.143 M125.714 367.143 C 125.714 367.614,126.100 368.000,126.571 368.000 C 127.043 368.000,127.429 367.614,127.429 367.143 C 127.429 366.671,127.043 366.286,126.571 366.286 C 126.100 366.286,125.714 366.671,125.714 367.143 M145.714 367.429 C 145.714 368.057,145.457 368.571,145.143 368.571 C 144.829 368.571,144.571 368.957,144.571 369.429 C 144.571 369.900,144.829 370.286,145.143 370.286 C 145.457 370.286,145.714 371.571,145.714 373.143 C 145.714 375.937,145.752 376.000,147.429 376.000 C 149.249 376.000,149.840 374.676,148.286 374.079 C 147.785 373.887,147.429 373.031,147.429 372.018 C 147.429 370.859,147.712 370.286,148.286 370.286 C 148.757 370.286,149.143 369.900,149.143 369.429 C 149.143 368.957,148.757 368.571,148.286 368.571 C 147.810 368.571,147.429 368.063,147.429 367.429 C 147.429 366.794,147.048 366.286,146.571 366.286 C 146.095 366.286,145.714 366.794,145.714 367.429 M108.571 369.082 C 108.571 370.214,107.520 370.857,105.668 370.857 C 104.879 370.857,104.571 370.456,104.571 369.429 C 104.571 368.177,104.819 368.000,106.571 368.000 C 108.153 368.000,108.571 368.226,108.571 369.082 M34.286 372.286 C 34.286 375.206,34.469 376.000,35.143 376.000 C 35.718 376.000,36.000 375.424,36.000 374.248 C 36.000 372.076,36.913 370.286,38.020 370.286 C 38.608 370.286,38.857 370.931,38.857 372.457 C 38.857 375.232,39.663 376.000,42.571 376.000 C 45.519 376.000,46.286 375.233,46.286 372.286 C 46.286 369.338,45.519 368.571,42.571 368.571 C 41.283 368.571,39.920 368.880,39.543 369.257 C 39.010 369.790,38.857 369.790,38.857 369.257 C 38.857 368.838,37.968 368.571,36.571 368.571 L 34.286 368.571 34.286 372.286 M47.429 372.281 C 47.429 375.206,47.612 376.000,48.286 376.000 C 48.880 376.000,49.143 375.402,49.143 374.047 C 49.143 371.575,49.633 370.286,50.571 370.286 C 51.510 370.286,52.000 371.575,52.000 374.047 C 52.000 375.402,52.262 376.000,52.857 376.000 C 53.452 376.000,53.714 375.402,53.714 374.047 C 53.714 371.579,54.204 370.286,55.137 370.286 C 55.949 370.286,56.552 372.037,56.564 374.429 C 56.569 375.463,56.874 376.000,57.456 376.000 C 58.178 376.000,58.309 375.344,58.170 372.429 L 58.000 368.857 52.714 368.710 L 47.429 368.562 47.429 372.281 M74.400 369.257 C 72.041 371.616,74.010 376.000,77.429 376.000 C 80.376 376.000,81.143 375.233,81.143 372.286 C 81.143 368.867,76.759 366.898,74.400 369.257 M82.401 372.143 L 82.571 375.714 85.571 375.887 L 88.571 376.060 88.571 372.316 C 88.571 369.368,88.389 368.571,87.714 368.571 C 87.106 368.571,86.855 369.194,86.848 370.714 C 86.838 373.332,86.132 374.568,84.915 374.101 C 84.262 373.851,84.000 373.008,84.000 371.161 C 84.000 369.205,83.784 368.571,83.116 368.571 C 82.394 368.571,82.262 369.227,82.401 372.143 M90.286 372.330 C 90.286 375.211,90.470 376.000,91.143 376.000 C 91.751 376.000,92.003 375.377,92.009 373.857 C 92.019 371.239,92.725 370.003,93.942 370.470 C 94.595 370.721,94.857 371.564,94.857 373.411 C 94.857 375.367,95.073 376.000,95.742 376.000 C 96.464 376.000,96.595 375.344,96.456 372.429 L 96.286 368.857 93.286 368.759 L 90.286 368.660 90.286 372.330 M112.000 372.286 C 112.000 375.206,112.183 376.000,112.857 376.000 C 113.433 376.000,113.714 375.424,113.714 374.248 C 113.714 372.076,114.627 370.286,115.734 370.286 C 116.323 370.286,116.571 370.931,116.571 372.457 C 116.571 375.232,117.377 376.000,120.286 376.000 C 123.233 376.000,124.000 375.233,124.000 372.286 C 124.000 369.338,123.233 368.571,120.286 368.571 C 118.997 368.571,117.634 368.880,117.257 369.257 C 116.724 369.790,116.571 369.790,116.571 369.257 C 116.571 368.838,115.683 368.571,114.286 368.571 L 112.000 368.571 112.000 372.286 M125.714 372.538 C 125.714 374.719,125.457 376.663,125.143 376.857 C 124.009 377.558,124.531 378.942,125.857 378.754 C 127.518 378.518,128.237 368.571,126.594 368.571 C 125.887 368.571,125.714 369.348,125.714 372.538 M129.257 369.257 C 127.004 371.510,128.848 376.000,132.026 376.000 C 135.552 376.000,137.167 372.777,135.110 369.841 C 134.111 368.414,130.464 368.050,129.257 369.257 M137.257 369.257 C 136.880 369.634,136.571 370.997,136.571 372.286 C 136.571 376.107,140.995 377.750,143.119 374.717 C 144.210 373.160,143.364 372.678,141.392 373.734 C 139.055 374.984,137.173 372.492,139.189 370.819 C 139.898 370.231,140.328 370.215,141.182 370.749 C 143.375 372.119,144.441 371.606,143.408 369.677 C 142.721 368.393,138.415 368.099,137.257 369.257 M43.958 371.350 C 44.707 372.750,43.423 374.625,42.070 374.106 C 40.752 373.600,40.304 372.154,41.149 371.136 C 42.109 369.979,43.272 370.068,43.958 371.350 M78.815 371.350 C 79.564 372.750,78.280 374.625,76.927 374.106 C 75.609 373.600,75.161 372.154,76.006 371.136 C 76.966 369.979,78.129 370.068,78.815 371.350 M121.672 371.350 C 122.422 372.750,121.137 374.625,119.784 374.106 C 118.467 373.600,118.018 372.154,118.863 371.136 C 119.823 369.979,120.986 370.068,121.672 371.350 M133.429 370.857 C 133.629 371.181,133.149 371.429,132.319 371.429 C 131.515 371.429,130.857 371.171,130.857 370.857 C 130.857 370.543,131.356 370.286,131.966 370.286 C 132.576 370.286,133.234 370.543,133.429 370.857 M133.429 373.714 C 133.234 374.029,132.576 374.286,131.966 374.286 C 131.356 374.286,130.857 374.029,130.857 373.714 C 130.857 373.400,131.515 373.143,132.319 373.143 C 133.149 373.143,133.629 373.390,133.429 373.714 " stroke="none" fill="#fff" fill-rule="evenodd"></path></g></svg>